<svg width="32" height="50" viewBox="0 0 32 50" fill="none" xmlns="http://www.w3.org/2000/svg">
<rect x="0.5" y="2.5" width="30" height="47" stroke="black"/>
<path d="M27.0047 4.41352L27.0048 4.41349C24.6306 2.46785 20.8456 1.4707 15.5415 1.4707V0.970703C12.8185 0.971031 10.4755 1.23233 8.56647 1.86596C6.60482 2.39348 4.96711 3.18223 3.71248 4.12821C2.46042 5.07927 1.5323 6.1825 0.930691 7.5013C0.331655 8.81756 0.0565613 10.1871 0.0565613 11.6657L27.0047 4.41352ZM27.0047 4.41352L27.0097 4.41749C29.405 6.33006 30.5856 8.76523 30.5856 11.6606V37.6815C30.5856 38.6682 30.3827 39.7758 30.0107 41.0108C29.6556 42.1782 28.9523 43.2576 27.8127 44.2542L27.8126 44.254L27.8024 44.2634C26.7226 45.2616 25.2082 46.1261 23.2377 46.7947C21.2881 47.4562 18.7294 47.8207 15.5441 47.8207C12.3638 47.8207 9.80011 47.4562 7.85317 46.7947C5.8849 46.1261 4.36806 45.2615 3.2883 44.2634L3.28837 44.2633L3.2811 44.2569C2.2821 43.3688 1.52528 42.2486 1.079 40.999C0.704074 39.771 0.5 38.6673 0.5 37.684V33.5248C0.5 31.4044 1.07253 29.4479 2.21514 27.7415L2.21517 27.7416L2.2185 27.7365C3.35198 25.9982 4.94649 24.7988 7.03736 24.0398C7.55642 23.8648 8.11407 23.6894 8.71573 23.5002L8.78043 23.4799C9.40727 23.2827 10.0791 23.071 10.7923 22.8322L10.7928 22.832C11.3542 22.6434 11.8922 22.4573 12.4173 22.2755C13.2363 21.9921 14.0243 21.7195 14.822 21.4649L14.8236 21.4643C16.1465 21.037 17.2995 20.6101 18.2816 20.2389L18.2816 20.239L18.2883 20.2363C18.8671 20.0078 19.455 19.8024 20.0506 19.6204L20.0873 19.6092L20.1219 19.5925L21.104 19.1182L21.1152 19.1128L21.1261 19.1069C21.5752 18.8617 21.9957 18.5037 22.403 18.056L22.4031 18.0558C22.8147 17.6033 23.1652 17.0931 23.4587 16.5304L23.4587 16.5304L23.4609 16.526C23.7874 15.8843 23.9559 15.1754 23.9524 14.4569V12.7729C23.9566 12.0905 23.813 11.4155 23.5317 10.7929C23.2766 10.0617 22.7797 9.42204 22.1445 8.8653C21.4779 8.27854 20.59 7.8301 19.571 7.49767L19.571 7.49766L19.5673 7.49648C18.5189 7.16348 17.1571 7.0013 15.6521 7.0013C12.5701 7.0013 10.3593 7.58246 9.11835 8.95673L9.11831 8.95669L9.11358 8.96209C8.11341 10.1022 7.52781 11.5225 7.41221 13.1001L7.41087 13.1183V13.1366C7.41087 13.1368 7.41087 13.1371 7.41087 13.1373C7.40205 13.1447 7.36984 13.1641 7.30927 13.1641V13.1641L7.30126 13.1642L0.654264 13.2707C0.626658 13.2703 0.601467 13.2594 0.583687 13.2422C0.566248 13.2253 0.557297 13.2038 0.556561 13.1826M27.0047 4.41352L0.556561 13.1826M0.556561 13.1826V11.6657C0.556561 10.2524 0.818765 8.95433 1.38576 7.70846L0.556561 13.1826ZM15.5466 0.970703V1.4707C12.8472 1.4707 10.5625 1.73028 8.72398 2.34051L8.71027 2.34506L8.69631 2.34881C6.78669 2.86234 5.20975 3.62565 4.01421 4.52691C2.81854 5.43528 1.94818 6.47574 1.38578 7.70841L15.5466 0.970703ZM15.5466 0.970703C20.8916 0.971345 24.8158 1.97314 27.3217 4.02677L15.5466 0.970703ZM23.8932 35.0515V24.3589L23.9812 23.8033H23.3958H23.3932H22.8932V24.2742C22.8575 24.4552 22.7841 24.6275 22.677 24.7801C22.5603 24.9465 22.4065 25.0852 22.2267 25.1854L22.2139 25.1926L22.2016 25.2004C21.7603 25.4816 21.3757 25.6232 20.9424 25.7792C20.6327 25.8846 20.3149 25.991 19.9899 26.0998C19.3512 26.3135 18.6848 26.5365 17.998 26.7803C17.5689 26.9247 17.1651 27.0662 16.7814 27.2007C16.1664 27.4163 15.6029 27.6138 15.0693 27.7763L15.0622 27.7785L15.0552 27.7809C14.7069 27.8984 14.3596 28.0121 14.0154 28.1248C13.3011 28.3586 12.5999 28.5882 11.9292 28.8387L11.9194 28.8424L11.9097 28.8465C11.1288 29.1761 10.3951 29.6058 9.72765 30.1246L9.7141 30.1352L9.7013 30.1466C9.07904 30.7027 8.5358 31.3396 8.0865 32.0399L8.08188 32.0471L8.0775 32.0545C7.59108 32.8731 7.29518 33.911 7.29518 35.0997C7.29518 37.3796 7.85449 39.2207 9.08115 40.4057C10.3241 41.665 12.5287 42.1836 15.5389 42.1836C18.6181 42.1836 20.878 41.6084 22.1241 40.2897L22.1253 40.2884C23.3248 39.0101 23.8932 37.2417 23.8932 35.0515Z" fill="white" stroke="black"/>
</svg>
